%TF.GenerationSoftware,KiCad,Pcbnew,8.0.8*%
%TF.CreationDate,2025-10-11T21:39:01+03:00*%
%TF.ProjectId,Dual solar tracking system before routing Austin,4475616c-2073-46f6-9c61-722074726163,rev?*%
%TF.SameCoordinates,Original*%
%TF.FileFunction,Drillmap*%
%TF.FilePolarity,Positive*%
%FSLAX45Y45*%
G04 Gerber Fmt 4.5, Leading zero omitted, Abs format (unit mm)*
G04 Created by KiCad (PCBNEW 8.0.8) date 2025-10-11 21:39:01*
%MOMM*%
%LPD*%
G01*
G04 APERTURE LIST*
%ADD10C,0.050000*%
%ADD11C,0.200000*%
%ADD12C,0.100000*%
%ADD13C,0.240000*%
G04 APERTURE END LIST*
D10*
X8250000Y-4750000D02*
X18750000Y-4750000D01*
X18750000Y-14750000D01*
X8250000Y-14750000D01*
X8250000Y-4750000D01*
D11*
D12*
X10458162Y-12368606D02*
X10488162Y-12398606D01*
X10488162Y-12368606D02*
X10458162Y-12398606D01*
X8959000Y-8288000D02*
G75*
G02*
X8879000Y-8288000I-40000J0D01*
G01*
X8879000Y-8288000D02*
G75*
G02*
X8959000Y-8288000I40000J0D01*
G01*
X8959000Y-9050000D02*
G75*
G02*
X8879000Y-9050000I-40000J0D01*
G01*
X8879000Y-9050000D02*
G75*
G02*
X8959000Y-9050000I40000J0D01*
G01*
X9090000Y-5220000D02*
G75*
G02*
X9010000Y-5220000I-40000J0D01*
G01*
X9010000Y-5220000D02*
G75*
G02*
X9090000Y-5220000I40000J0D01*
G01*
X9090000Y-5980000D02*
G75*
G02*
X9010000Y-5980000I-40000J0D01*
G01*
X9010000Y-5980000D02*
G75*
G02*
X9090000Y-5980000I40000J0D01*
G01*
X10490000Y-5220000D02*
G75*
G02*
X10410000Y-5220000I-40000J0D01*
G01*
X10410000Y-5220000D02*
G75*
G02*
X10490000Y-5220000I40000J0D01*
G01*
X10490000Y-5980000D02*
G75*
G02*
X10410000Y-5980000I-40000J0D01*
G01*
X10410000Y-5980000D02*
G75*
G02*
X10490000Y-5980000I40000J0D01*
G01*
X10590000Y-8369000D02*
G75*
G02*
X10510000Y-8369000I-40000J0D01*
G01*
X10510000Y-8369000D02*
G75*
G02*
X10590000Y-8369000I40000J0D01*
G01*
X10590000Y-9131000D02*
G75*
G02*
X10510000Y-9131000I-40000J0D01*
G01*
X10510000Y-9131000D02*
G75*
G02*
X10590000Y-9131000I40000J0D01*
G01*
X12040000Y-8419000D02*
G75*
G02*
X11960000Y-8419000I-40000J0D01*
G01*
X11960000Y-8419000D02*
G75*
G02*
X12040000Y-8419000I40000J0D01*
G01*
X12040000Y-9181000D02*
G75*
G02*
X11960000Y-9181000I-40000J0D01*
G01*
X11960000Y-9181000D02*
G75*
G02*
X12040000Y-9181000I40000J0D01*
G01*
X12090000Y-5320000D02*
G75*
G02*
X12010000Y-5320000I-40000J0D01*
G01*
X12010000Y-5320000D02*
G75*
G02*
X12090000Y-5320000I40000J0D01*
G01*
X12090000Y-6080000D02*
G75*
G02*
X12010000Y-6080000I-40000J0D01*
G01*
X12010000Y-6080000D02*
G75*
G02*
X12090000Y-6080000I40000J0D01*
G01*
X13240000Y-8469000D02*
G75*
G02*
X13160000Y-8469000I-40000J0D01*
G01*
X13160000Y-8469000D02*
G75*
G02*
X13240000Y-8469000I40000J0D01*
G01*
X13240000Y-9231000D02*
G75*
G02*
X13160000Y-9231000I-40000J0D01*
G01*
X13160000Y-9231000D02*
G75*
G02*
X13240000Y-9231000I40000J0D01*
G01*
X13290000Y-5320000D02*
G75*
G02*
X13210000Y-5320000I-40000J0D01*
G01*
X13210000Y-5320000D02*
G75*
G02*
X13290000Y-5320000I40000J0D01*
G01*
X13290000Y-6080000D02*
G75*
G02*
X13210000Y-6080000I-40000J0D01*
G01*
X13210000Y-6080000D02*
G75*
G02*
X13290000Y-6080000I40000J0D01*
G01*
X8826000Y-10260000D02*
X8826000Y-10360000D01*
X8776000Y-10310000D02*
X8876000Y-10310000D01*
X8826000Y-10514000D02*
X8826000Y-10614000D01*
X8776000Y-10564000D02*
X8876000Y-10564000D01*
X8826000Y-10768000D02*
X8826000Y-10868000D01*
X8776000Y-10818000D02*
X8876000Y-10818000D01*
X8826000Y-11022000D02*
X8826000Y-11122000D01*
X8776000Y-11072000D02*
X8876000Y-11072000D01*
X8826000Y-11276000D02*
X8826000Y-11376000D01*
X8776000Y-11326000D02*
X8876000Y-11326000D01*
X8826000Y-11530000D02*
X8826000Y-11630000D01*
X8776000Y-11580000D02*
X8876000Y-11580000D01*
X8826000Y-11784000D02*
X8826000Y-11884000D01*
X8776000Y-11834000D02*
X8876000Y-11834000D01*
X8826000Y-12038000D02*
X8826000Y-12138000D01*
X8776000Y-12088000D02*
X8876000Y-12088000D01*
X8826000Y-12292000D02*
X8826000Y-12392000D01*
X8776000Y-12342000D02*
X8876000Y-12342000D01*
X8826000Y-12546000D02*
X8826000Y-12646000D01*
X8776000Y-12596000D02*
X8876000Y-12596000D01*
X8826000Y-12800000D02*
X8826000Y-12900000D01*
X8776000Y-12850000D02*
X8876000Y-12850000D01*
X8826000Y-13054000D02*
X8826000Y-13154000D01*
X8776000Y-13104000D02*
X8876000Y-13104000D01*
X8826000Y-13308000D02*
X8826000Y-13408000D01*
X8776000Y-13358000D02*
X8876000Y-13358000D01*
X8826000Y-13562000D02*
X8826000Y-13662000D01*
X8776000Y-13612000D02*
X8876000Y-13612000D01*
X8826000Y-13816000D02*
X8826000Y-13916000D01*
X8776000Y-13866000D02*
X8876000Y-13866000D01*
X10350000Y-10260000D02*
X10350000Y-10360000D01*
X10300000Y-10310000D02*
X10400000Y-10310000D01*
X10350000Y-10514000D02*
X10350000Y-10614000D01*
X10300000Y-10564000D02*
X10400000Y-10564000D01*
X10350000Y-10768000D02*
X10350000Y-10868000D01*
X10300000Y-10818000D02*
X10400000Y-10818000D01*
X10350000Y-11022000D02*
X10350000Y-11122000D01*
X10300000Y-11072000D02*
X10400000Y-11072000D01*
X10350000Y-11276000D02*
X10350000Y-11376000D01*
X10300000Y-11326000D02*
X10400000Y-11326000D01*
X10350000Y-11530000D02*
X10350000Y-11630000D01*
X10300000Y-11580000D02*
X10400000Y-11580000D01*
X10350000Y-11784000D02*
X10350000Y-11884000D01*
X10300000Y-11834000D02*
X10400000Y-11834000D01*
X10350000Y-12038000D02*
X10350000Y-12138000D01*
X10300000Y-12088000D02*
X10400000Y-12088000D01*
X10350000Y-12292000D02*
X10350000Y-12392000D01*
X10300000Y-12342000D02*
X10400000Y-12342000D01*
X10350000Y-12546000D02*
X10350000Y-12646000D01*
X10300000Y-12596000D02*
X10400000Y-12596000D01*
X10350000Y-12800000D02*
X10350000Y-12900000D01*
X10300000Y-12850000D02*
X10400000Y-12850000D01*
X10350000Y-13054000D02*
X10350000Y-13154000D01*
X10300000Y-13104000D02*
X10400000Y-13104000D01*
X10350000Y-13308000D02*
X10350000Y-13408000D01*
X10300000Y-13358000D02*
X10400000Y-13358000D01*
X10350000Y-13562000D02*
X10350000Y-13662000D01*
X10300000Y-13612000D02*
X10400000Y-13612000D01*
X10350000Y-13816000D02*
X10350000Y-13916000D01*
X10300000Y-13866000D02*
X10400000Y-13866000D01*
X13912500Y-6547500D02*
X13912500Y-6647500D01*
X13862500Y-6597500D02*
X13962500Y-6597500D01*
X13912500Y-6801500D02*
X13912500Y-6901500D01*
X13862500Y-6851500D02*
X13962500Y-6851500D01*
X13912500Y-7055500D02*
X13912500Y-7155500D01*
X13862500Y-7105500D02*
X13962500Y-7105500D01*
X14062500Y-9197500D02*
X14062500Y-9297500D01*
X14012500Y-9247500D02*
X14112500Y-9247500D01*
X14062500Y-9451500D02*
X14062500Y-9551500D01*
X14012500Y-9501500D02*
X14112500Y-9501500D01*
X14062500Y-9705500D02*
X14062500Y-9805500D01*
X14012500Y-9755500D02*
X14112500Y-9755500D01*
D13*
X16434854Y-5384854D02*
X16434854Y-5215146D01*
X16265146Y-5215146D01*
X16265146Y-5384854D01*
X16434854Y-5384854D01*
X17704854Y-5384854D02*
X17704854Y-5215146D01*
X17535146Y-5215146D01*
X17535146Y-5384854D01*
X17704854Y-5384854D01*
X18334854Y-12164854D02*
X18334854Y-11995146D01*
X18165146Y-11995146D01*
X18165146Y-12164854D01*
X18334854Y-12164854D01*
X18334854Y-13434854D02*
X18334854Y-13265146D01*
X18165146Y-13265146D01*
X18165146Y-13434854D01*
X18334854Y-13434854D01*
D11*
X8508277Y-15063984D02*
X8508277Y-14863984D01*
X8508277Y-14863984D02*
X8555896Y-14863984D01*
X8555896Y-14863984D02*
X8584467Y-14873508D01*
X8584467Y-14873508D02*
X8603515Y-14892555D01*
X8603515Y-14892555D02*
X8613039Y-14911603D01*
X8613039Y-14911603D02*
X8622563Y-14949698D01*
X8622563Y-14949698D02*
X8622563Y-14978269D01*
X8622563Y-14978269D02*
X8613039Y-15016365D01*
X8613039Y-15016365D02*
X8603515Y-15035412D01*
X8603515Y-15035412D02*
X8584467Y-15054460D01*
X8584467Y-15054460D02*
X8555896Y-15063984D01*
X8555896Y-15063984D02*
X8508277Y-15063984D01*
X8708277Y-15063984D02*
X8708277Y-14930650D01*
X8708277Y-14968746D02*
X8717801Y-14949698D01*
X8717801Y-14949698D02*
X8727324Y-14940174D01*
X8727324Y-14940174D02*
X8746372Y-14930650D01*
X8746372Y-14930650D02*
X8765420Y-14930650D01*
X8832086Y-15063984D02*
X8832086Y-14930650D01*
X8832086Y-14863984D02*
X8822563Y-14873508D01*
X8822563Y-14873508D02*
X8832086Y-14883031D01*
X8832086Y-14883031D02*
X8841610Y-14873508D01*
X8841610Y-14873508D02*
X8832086Y-14863984D01*
X8832086Y-14863984D02*
X8832086Y-14883031D01*
X8955896Y-15063984D02*
X8936848Y-15054460D01*
X8936848Y-15054460D02*
X8927324Y-15035412D01*
X8927324Y-15035412D02*
X8927324Y-14863984D01*
X9060658Y-15063984D02*
X9041610Y-15054460D01*
X9041610Y-15054460D02*
X9032086Y-15035412D01*
X9032086Y-15035412D02*
X9032086Y-14863984D01*
X9289229Y-15063984D02*
X9289229Y-14863984D01*
X9289229Y-14863984D02*
X9355896Y-15006841D01*
X9355896Y-15006841D02*
X9422563Y-14863984D01*
X9422563Y-14863984D02*
X9422563Y-15063984D01*
X9603515Y-15063984D02*
X9603515Y-14959222D01*
X9603515Y-14959222D02*
X9593991Y-14940174D01*
X9593991Y-14940174D02*
X9574944Y-14930650D01*
X9574944Y-14930650D02*
X9536848Y-14930650D01*
X9536848Y-14930650D02*
X9517801Y-14940174D01*
X9603515Y-15054460D02*
X9584467Y-15063984D01*
X9584467Y-15063984D02*
X9536848Y-15063984D01*
X9536848Y-15063984D02*
X9517801Y-15054460D01*
X9517801Y-15054460D02*
X9508277Y-15035412D01*
X9508277Y-15035412D02*
X9508277Y-15016365D01*
X9508277Y-15016365D02*
X9517801Y-14997317D01*
X9517801Y-14997317D02*
X9536848Y-14987793D01*
X9536848Y-14987793D02*
X9584467Y-14987793D01*
X9584467Y-14987793D02*
X9603515Y-14978269D01*
X9698753Y-14930650D02*
X9698753Y-15130650D01*
X9698753Y-14940174D02*
X9717801Y-14930650D01*
X9717801Y-14930650D02*
X9755896Y-14930650D01*
X9755896Y-14930650D02*
X9774944Y-14940174D01*
X9774944Y-14940174D02*
X9784467Y-14949698D01*
X9784467Y-14949698D02*
X9793991Y-14968746D01*
X9793991Y-14968746D02*
X9793991Y-15025888D01*
X9793991Y-15025888D02*
X9784467Y-15044936D01*
X9784467Y-15044936D02*
X9774944Y-15054460D01*
X9774944Y-15054460D02*
X9755896Y-15063984D01*
X9755896Y-15063984D02*
X9717801Y-15063984D01*
X9717801Y-15063984D02*
X9698753Y-15054460D01*
X9879705Y-15044936D02*
X9889229Y-15054460D01*
X9889229Y-15054460D02*
X9879705Y-15063984D01*
X9879705Y-15063984D02*
X9870182Y-15054460D01*
X9870182Y-15054460D02*
X9879705Y-15044936D01*
X9879705Y-15044936D02*
X9879705Y-15063984D01*
X9879705Y-14940174D02*
X9889229Y-14949698D01*
X9889229Y-14949698D02*
X9879705Y-14959222D01*
X9879705Y-14959222D02*
X9870182Y-14949698D01*
X9870182Y-14949698D02*
X9879705Y-14940174D01*
X9879705Y-14940174D02*
X9879705Y-14959222D01*
D12*
X8217500Y-15377500D02*
X8247500Y-15407500D01*
X8247500Y-15377500D02*
X8217500Y-15407500D01*
D11*
X8546372Y-15283984D02*
X8565420Y-15283984D01*
X8565420Y-15283984D02*
X8584467Y-15293508D01*
X8584467Y-15293508D02*
X8593991Y-15303031D01*
X8593991Y-15303031D02*
X8603515Y-15322079D01*
X8603515Y-15322079D02*
X8613039Y-15360174D01*
X8613039Y-15360174D02*
X8613039Y-15407793D01*
X8613039Y-15407793D02*
X8603515Y-15445888D01*
X8603515Y-15445888D02*
X8593991Y-15464936D01*
X8593991Y-15464936D02*
X8584467Y-15474460D01*
X8584467Y-15474460D02*
X8565420Y-15483984D01*
X8565420Y-15483984D02*
X8546372Y-15483984D01*
X8546372Y-15483984D02*
X8527324Y-15474460D01*
X8527324Y-15474460D02*
X8517801Y-15464936D01*
X8517801Y-15464936D02*
X8508277Y-15445888D01*
X8508277Y-15445888D02*
X8498753Y-15407793D01*
X8498753Y-15407793D02*
X8498753Y-15360174D01*
X8498753Y-15360174D02*
X8508277Y-15322079D01*
X8508277Y-15322079D02*
X8517801Y-15303031D01*
X8517801Y-15303031D02*
X8527324Y-15293508D01*
X8527324Y-15293508D02*
X8546372Y-15283984D01*
X8698753Y-15464936D02*
X8708277Y-15474460D01*
X8708277Y-15474460D02*
X8698753Y-15483984D01*
X8698753Y-15483984D02*
X8689229Y-15474460D01*
X8689229Y-15474460D02*
X8698753Y-15464936D01*
X8698753Y-15464936D02*
X8698753Y-15483984D01*
X8774944Y-15283984D02*
X8898753Y-15283984D01*
X8898753Y-15283984D02*
X8832086Y-15360174D01*
X8832086Y-15360174D02*
X8860658Y-15360174D01*
X8860658Y-15360174D02*
X8879705Y-15369698D01*
X8879705Y-15369698D02*
X8889229Y-15379222D01*
X8889229Y-15379222D02*
X8898753Y-15398269D01*
X8898753Y-15398269D02*
X8898753Y-15445888D01*
X8898753Y-15445888D02*
X8889229Y-15464936D01*
X8889229Y-15464936D02*
X8879705Y-15474460D01*
X8879705Y-15474460D02*
X8860658Y-15483984D01*
X8860658Y-15483984D02*
X8803515Y-15483984D01*
X8803515Y-15483984D02*
X8784467Y-15474460D01*
X8784467Y-15474460D02*
X8774944Y-15464936D01*
X9022563Y-15283984D02*
X9041610Y-15283984D01*
X9041610Y-15283984D02*
X9060658Y-15293508D01*
X9060658Y-15293508D02*
X9070182Y-15303031D01*
X9070182Y-15303031D02*
X9079705Y-15322079D01*
X9079705Y-15322079D02*
X9089229Y-15360174D01*
X9089229Y-15360174D02*
X9089229Y-15407793D01*
X9089229Y-15407793D02*
X9079705Y-15445888D01*
X9079705Y-15445888D02*
X9070182Y-15464936D01*
X9070182Y-15464936D02*
X9060658Y-15474460D01*
X9060658Y-15474460D02*
X9041610Y-15483984D01*
X9041610Y-15483984D02*
X9022563Y-15483984D01*
X9022563Y-15483984D02*
X9003515Y-15474460D01*
X9003515Y-15474460D02*
X8993991Y-15464936D01*
X8993991Y-15464936D02*
X8984467Y-15445888D01*
X8984467Y-15445888D02*
X8974944Y-15407793D01*
X8974944Y-15407793D02*
X8974944Y-15360174D01*
X8974944Y-15360174D02*
X8984467Y-15322079D01*
X8984467Y-15322079D02*
X8993991Y-15303031D01*
X8993991Y-15303031D02*
X9003515Y-15293508D01*
X9003515Y-15293508D02*
X9022563Y-15283984D01*
X9213039Y-15283984D02*
X9232086Y-15283984D01*
X9232086Y-15283984D02*
X9251134Y-15293508D01*
X9251134Y-15293508D02*
X9260658Y-15303031D01*
X9260658Y-15303031D02*
X9270182Y-15322079D01*
X9270182Y-15322079D02*
X9279705Y-15360174D01*
X9279705Y-15360174D02*
X9279705Y-15407793D01*
X9279705Y-15407793D02*
X9270182Y-15445888D01*
X9270182Y-15445888D02*
X9260658Y-15464936D01*
X9260658Y-15464936D02*
X9251134Y-15474460D01*
X9251134Y-15474460D02*
X9232086Y-15483984D01*
X9232086Y-15483984D02*
X9213039Y-15483984D01*
X9213039Y-15483984D02*
X9193991Y-15474460D01*
X9193991Y-15474460D02*
X9184467Y-15464936D01*
X9184467Y-15464936D02*
X9174944Y-15445888D01*
X9174944Y-15445888D02*
X9165420Y-15407793D01*
X9165420Y-15407793D02*
X9165420Y-15360174D01*
X9165420Y-15360174D02*
X9174944Y-15322079D01*
X9174944Y-15322079D02*
X9184467Y-15303031D01*
X9184467Y-15303031D02*
X9193991Y-15293508D01*
X9193991Y-15293508D02*
X9213039Y-15283984D01*
X9365420Y-15483984D02*
X9365420Y-15350650D01*
X9365420Y-15369698D02*
X9374944Y-15360174D01*
X9374944Y-15360174D02*
X9393991Y-15350650D01*
X9393991Y-15350650D02*
X9422563Y-15350650D01*
X9422563Y-15350650D02*
X9441610Y-15360174D01*
X9441610Y-15360174D02*
X9451134Y-15379222D01*
X9451134Y-15379222D02*
X9451134Y-15483984D01*
X9451134Y-15379222D02*
X9460658Y-15360174D01*
X9460658Y-15360174D02*
X9479705Y-15350650D01*
X9479705Y-15350650D02*
X9508277Y-15350650D01*
X9508277Y-15350650D02*
X9527325Y-15360174D01*
X9527325Y-15360174D02*
X9536848Y-15379222D01*
X9536848Y-15379222D02*
X9536848Y-15483984D01*
X9632086Y-15483984D02*
X9632086Y-15350650D01*
X9632086Y-15369698D02*
X9641610Y-15360174D01*
X9641610Y-15360174D02*
X9660658Y-15350650D01*
X9660658Y-15350650D02*
X9689229Y-15350650D01*
X9689229Y-15350650D02*
X9708277Y-15360174D01*
X9708277Y-15360174D02*
X9717801Y-15379222D01*
X9717801Y-15379222D02*
X9717801Y-15483984D01*
X9717801Y-15379222D02*
X9727325Y-15360174D01*
X9727325Y-15360174D02*
X9746372Y-15350650D01*
X9746372Y-15350650D02*
X9774944Y-15350650D01*
X9774944Y-15350650D02*
X9793991Y-15360174D01*
X9793991Y-15360174D02*
X9803515Y-15379222D01*
X9803515Y-15379222D02*
X9803515Y-15483984D01*
X10193991Y-15274460D02*
X10022563Y-15531603D01*
X10451134Y-15283984D02*
X10470182Y-15283984D01*
X10470182Y-15283984D02*
X10489229Y-15293508D01*
X10489229Y-15293508D02*
X10498753Y-15303031D01*
X10498753Y-15303031D02*
X10508277Y-15322079D01*
X10508277Y-15322079D02*
X10517801Y-15360174D01*
X10517801Y-15360174D02*
X10517801Y-15407793D01*
X10517801Y-15407793D02*
X10508277Y-15445888D01*
X10508277Y-15445888D02*
X10498753Y-15464936D01*
X10498753Y-15464936D02*
X10489229Y-15474460D01*
X10489229Y-15474460D02*
X10470182Y-15483984D01*
X10470182Y-15483984D02*
X10451134Y-15483984D01*
X10451134Y-15483984D02*
X10432087Y-15474460D01*
X10432087Y-15474460D02*
X10422563Y-15464936D01*
X10422563Y-15464936D02*
X10413039Y-15445888D01*
X10413039Y-15445888D02*
X10403515Y-15407793D01*
X10403515Y-15407793D02*
X10403515Y-15360174D01*
X10403515Y-15360174D02*
X10413039Y-15322079D01*
X10413039Y-15322079D02*
X10422563Y-15303031D01*
X10422563Y-15303031D02*
X10432087Y-15293508D01*
X10432087Y-15293508D02*
X10451134Y-15283984D01*
X10603515Y-15464936D02*
X10613039Y-15474460D01*
X10613039Y-15474460D02*
X10603515Y-15483984D01*
X10603515Y-15483984D02*
X10593991Y-15474460D01*
X10593991Y-15474460D02*
X10603515Y-15464936D01*
X10603515Y-15464936D02*
X10603515Y-15483984D01*
X10736848Y-15283984D02*
X10755896Y-15283984D01*
X10755896Y-15283984D02*
X10774944Y-15293508D01*
X10774944Y-15293508D02*
X10784468Y-15303031D01*
X10784468Y-15303031D02*
X10793991Y-15322079D01*
X10793991Y-15322079D02*
X10803515Y-15360174D01*
X10803515Y-15360174D02*
X10803515Y-15407793D01*
X10803515Y-15407793D02*
X10793991Y-15445888D01*
X10793991Y-15445888D02*
X10784468Y-15464936D01*
X10784468Y-15464936D02*
X10774944Y-15474460D01*
X10774944Y-15474460D02*
X10755896Y-15483984D01*
X10755896Y-15483984D02*
X10736848Y-15483984D01*
X10736848Y-15483984D02*
X10717801Y-15474460D01*
X10717801Y-15474460D02*
X10708277Y-15464936D01*
X10708277Y-15464936D02*
X10698753Y-15445888D01*
X10698753Y-15445888D02*
X10689229Y-15407793D01*
X10689229Y-15407793D02*
X10689229Y-15360174D01*
X10689229Y-15360174D02*
X10698753Y-15322079D01*
X10698753Y-15322079D02*
X10708277Y-15303031D01*
X10708277Y-15303031D02*
X10717801Y-15293508D01*
X10717801Y-15293508D02*
X10736848Y-15283984D01*
X10993991Y-15483984D02*
X10879706Y-15483984D01*
X10936848Y-15483984D02*
X10936848Y-15283984D01*
X10936848Y-15283984D02*
X10917801Y-15312555D01*
X10917801Y-15312555D02*
X10898753Y-15331603D01*
X10898753Y-15331603D02*
X10879706Y-15341127D01*
X11184468Y-15483984D02*
X11070182Y-15483984D01*
X11127325Y-15483984D02*
X11127325Y-15283984D01*
X11127325Y-15283984D02*
X11108277Y-15312555D01*
X11108277Y-15312555D02*
X11089229Y-15331603D01*
X11089229Y-15331603D02*
X11070182Y-15341127D01*
X11298753Y-15369698D02*
X11279706Y-15360174D01*
X11279706Y-15360174D02*
X11270182Y-15350650D01*
X11270182Y-15350650D02*
X11260658Y-15331603D01*
X11260658Y-15331603D02*
X11260658Y-15322079D01*
X11260658Y-15322079D02*
X11270182Y-15303031D01*
X11270182Y-15303031D02*
X11279706Y-15293508D01*
X11279706Y-15293508D02*
X11298753Y-15283984D01*
X11298753Y-15283984D02*
X11336848Y-15283984D01*
X11336848Y-15283984D02*
X11355896Y-15293508D01*
X11355896Y-15293508D02*
X11365420Y-15303031D01*
X11365420Y-15303031D02*
X11374944Y-15322079D01*
X11374944Y-15322079D02*
X11374944Y-15331603D01*
X11374944Y-15331603D02*
X11365420Y-15350650D01*
X11365420Y-15350650D02*
X11355896Y-15360174D01*
X11355896Y-15360174D02*
X11336848Y-15369698D01*
X11336848Y-15369698D02*
X11298753Y-15369698D01*
X11298753Y-15369698D02*
X11279706Y-15379222D01*
X11279706Y-15379222D02*
X11270182Y-15388746D01*
X11270182Y-15388746D02*
X11260658Y-15407793D01*
X11260658Y-15407793D02*
X11260658Y-15445888D01*
X11260658Y-15445888D02*
X11270182Y-15464936D01*
X11270182Y-15464936D02*
X11279706Y-15474460D01*
X11279706Y-15474460D02*
X11298753Y-15483984D01*
X11298753Y-15483984D02*
X11336848Y-15483984D01*
X11336848Y-15483984D02*
X11355896Y-15474460D01*
X11355896Y-15474460D02*
X11365420Y-15464936D01*
X11365420Y-15464936D02*
X11374944Y-15445888D01*
X11374944Y-15445888D02*
X11374944Y-15407793D01*
X11374944Y-15407793D02*
X11365420Y-15388746D01*
X11365420Y-15388746D02*
X11355896Y-15379222D01*
X11355896Y-15379222D02*
X11336848Y-15369698D01*
X11451134Y-15283984D02*
X11451134Y-15322079D01*
X11527325Y-15283984D02*
X11527325Y-15322079D01*
X11822563Y-15560174D02*
X11813039Y-15550650D01*
X11813039Y-15550650D02*
X11793991Y-15522079D01*
X11793991Y-15522079D02*
X11784468Y-15503031D01*
X11784468Y-15503031D02*
X11774944Y-15474460D01*
X11774944Y-15474460D02*
X11765420Y-15426841D01*
X11765420Y-15426841D02*
X11765420Y-15388746D01*
X11765420Y-15388746D02*
X11774944Y-15341127D01*
X11774944Y-15341127D02*
X11784468Y-15312555D01*
X11784468Y-15312555D02*
X11793991Y-15293508D01*
X11793991Y-15293508D02*
X11813039Y-15264936D01*
X11813039Y-15264936D02*
X11822563Y-15255412D01*
X12003515Y-15483984D02*
X11889229Y-15483984D01*
X11946372Y-15483984D02*
X11946372Y-15283984D01*
X11946372Y-15283984D02*
X11927325Y-15312555D01*
X11927325Y-15312555D02*
X11908277Y-15331603D01*
X11908277Y-15331603D02*
X11889229Y-15341127D01*
X12241610Y-15483984D02*
X12241610Y-15283984D01*
X12327325Y-15483984D02*
X12327325Y-15379222D01*
X12327325Y-15379222D02*
X12317801Y-15360174D01*
X12317801Y-15360174D02*
X12298753Y-15350650D01*
X12298753Y-15350650D02*
X12270182Y-15350650D01*
X12270182Y-15350650D02*
X12251134Y-15360174D01*
X12251134Y-15360174D02*
X12241610Y-15369698D01*
X12451134Y-15483984D02*
X12432087Y-15474460D01*
X12432087Y-15474460D02*
X12422563Y-15464936D01*
X12422563Y-15464936D02*
X12413039Y-15445888D01*
X12413039Y-15445888D02*
X12413039Y-15388746D01*
X12413039Y-15388746D02*
X12422563Y-15369698D01*
X12422563Y-15369698D02*
X12432087Y-15360174D01*
X12432087Y-15360174D02*
X12451134Y-15350650D01*
X12451134Y-15350650D02*
X12479706Y-15350650D01*
X12479706Y-15350650D02*
X12498753Y-15360174D01*
X12498753Y-15360174D02*
X12508277Y-15369698D01*
X12508277Y-15369698D02*
X12517801Y-15388746D01*
X12517801Y-15388746D02*
X12517801Y-15445888D01*
X12517801Y-15445888D02*
X12508277Y-15464936D01*
X12508277Y-15464936D02*
X12498753Y-15474460D01*
X12498753Y-15474460D02*
X12479706Y-15483984D01*
X12479706Y-15483984D02*
X12451134Y-15483984D01*
X12632087Y-15483984D02*
X12613039Y-15474460D01*
X12613039Y-15474460D02*
X12603515Y-15455412D01*
X12603515Y-15455412D02*
X12603515Y-15283984D01*
X12784468Y-15474460D02*
X12765420Y-15483984D01*
X12765420Y-15483984D02*
X12727325Y-15483984D01*
X12727325Y-15483984D02*
X12708277Y-15474460D01*
X12708277Y-15474460D02*
X12698753Y-15455412D01*
X12698753Y-15455412D02*
X12698753Y-15379222D01*
X12698753Y-15379222D02*
X12708277Y-15360174D01*
X12708277Y-15360174D02*
X12727325Y-15350650D01*
X12727325Y-15350650D02*
X12765420Y-15350650D01*
X12765420Y-15350650D02*
X12784468Y-15360174D01*
X12784468Y-15360174D02*
X12793991Y-15379222D01*
X12793991Y-15379222D02*
X12793991Y-15398269D01*
X12793991Y-15398269D02*
X12698753Y-15417317D01*
X12860658Y-15560174D02*
X12870182Y-15550650D01*
X12870182Y-15550650D02*
X12889230Y-15522079D01*
X12889230Y-15522079D02*
X12898753Y-15503031D01*
X12898753Y-15503031D02*
X12908277Y-15474460D01*
X12908277Y-15474460D02*
X12917801Y-15426841D01*
X12917801Y-15426841D02*
X12917801Y-15388746D01*
X12917801Y-15388746D02*
X12908277Y-15341127D01*
X12908277Y-15341127D02*
X12898753Y-15312555D01*
X12898753Y-15312555D02*
X12889230Y-15293508D01*
X12889230Y-15293508D02*
X12870182Y-15264936D01*
X12870182Y-15264936D02*
X12860658Y-15255412D01*
D12*
X8247500Y-15656500D02*
G75*
G02*
X8167500Y-15656500I-40000J0D01*
G01*
X8167500Y-15656500D02*
G75*
G02*
X8247500Y-15656500I40000J0D01*
G01*
D11*
X8546372Y-15547984D02*
X8565420Y-15547984D01*
X8565420Y-15547984D02*
X8584467Y-15557508D01*
X8584467Y-15557508D02*
X8593991Y-15567031D01*
X8593991Y-15567031D02*
X8603515Y-15586079D01*
X8603515Y-15586079D02*
X8613039Y-15624174D01*
X8613039Y-15624174D02*
X8613039Y-15671793D01*
X8613039Y-15671793D02*
X8603515Y-15709888D01*
X8603515Y-15709888D02*
X8593991Y-15728936D01*
X8593991Y-15728936D02*
X8584467Y-15738460D01*
X8584467Y-15738460D02*
X8565420Y-15747984D01*
X8565420Y-15747984D02*
X8546372Y-15747984D01*
X8546372Y-15747984D02*
X8527324Y-15738460D01*
X8527324Y-15738460D02*
X8517801Y-15728936D01*
X8517801Y-15728936D02*
X8508277Y-15709888D01*
X8508277Y-15709888D02*
X8498753Y-15671793D01*
X8498753Y-15671793D02*
X8498753Y-15624174D01*
X8498753Y-15624174D02*
X8508277Y-15586079D01*
X8508277Y-15586079D02*
X8517801Y-15567031D01*
X8517801Y-15567031D02*
X8527324Y-15557508D01*
X8527324Y-15557508D02*
X8546372Y-15547984D01*
X8698753Y-15728936D02*
X8708277Y-15738460D01*
X8708277Y-15738460D02*
X8698753Y-15747984D01*
X8698753Y-15747984D02*
X8689229Y-15738460D01*
X8689229Y-15738460D02*
X8698753Y-15728936D01*
X8698753Y-15728936D02*
X8698753Y-15747984D01*
X8822563Y-15633698D02*
X8803515Y-15624174D01*
X8803515Y-15624174D02*
X8793991Y-15614650D01*
X8793991Y-15614650D02*
X8784467Y-15595603D01*
X8784467Y-15595603D02*
X8784467Y-15586079D01*
X8784467Y-15586079D02*
X8793991Y-15567031D01*
X8793991Y-15567031D02*
X8803515Y-15557508D01*
X8803515Y-15557508D02*
X8822563Y-15547984D01*
X8822563Y-15547984D02*
X8860658Y-15547984D01*
X8860658Y-15547984D02*
X8879705Y-15557508D01*
X8879705Y-15557508D02*
X8889229Y-15567031D01*
X8889229Y-15567031D02*
X8898753Y-15586079D01*
X8898753Y-15586079D02*
X8898753Y-15595603D01*
X8898753Y-15595603D02*
X8889229Y-15614650D01*
X8889229Y-15614650D02*
X8879705Y-15624174D01*
X8879705Y-15624174D02*
X8860658Y-15633698D01*
X8860658Y-15633698D02*
X8822563Y-15633698D01*
X8822563Y-15633698D02*
X8803515Y-15643222D01*
X8803515Y-15643222D02*
X8793991Y-15652746D01*
X8793991Y-15652746D02*
X8784467Y-15671793D01*
X8784467Y-15671793D02*
X8784467Y-15709888D01*
X8784467Y-15709888D02*
X8793991Y-15728936D01*
X8793991Y-15728936D02*
X8803515Y-15738460D01*
X8803515Y-15738460D02*
X8822563Y-15747984D01*
X8822563Y-15747984D02*
X8860658Y-15747984D01*
X8860658Y-15747984D02*
X8879705Y-15738460D01*
X8879705Y-15738460D02*
X8889229Y-15728936D01*
X8889229Y-15728936D02*
X8898753Y-15709888D01*
X8898753Y-15709888D02*
X8898753Y-15671793D01*
X8898753Y-15671793D02*
X8889229Y-15652746D01*
X8889229Y-15652746D02*
X8879705Y-15643222D01*
X8879705Y-15643222D02*
X8860658Y-15633698D01*
X9022563Y-15547984D02*
X9041610Y-15547984D01*
X9041610Y-15547984D02*
X9060658Y-15557508D01*
X9060658Y-15557508D02*
X9070182Y-15567031D01*
X9070182Y-15567031D02*
X9079705Y-15586079D01*
X9079705Y-15586079D02*
X9089229Y-15624174D01*
X9089229Y-15624174D02*
X9089229Y-15671793D01*
X9089229Y-15671793D02*
X9079705Y-15709888D01*
X9079705Y-15709888D02*
X9070182Y-15728936D01*
X9070182Y-15728936D02*
X9060658Y-15738460D01*
X9060658Y-15738460D02*
X9041610Y-15747984D01*
X9041610Y-15747984D02*
X9022563Y-15747984D01*
X9022563Y-15747984D02*
X9003515Y-15738460D01*
X9003515Y-15738460D02*
X8993991Y-15728936D01*
X8993991Y-15728936D02*
X8984467Y-15709888D01*
X8984467Y-15709888D02*
X8974944Y-15671793D01*
X8974944Y-15671793D02*
X8974944Y-15624174D01*
X8974944Y-15624174D02*
X8984467Y-15586079D01*
X8984467Y-15586079D02*
X8993991Y-15567031D01*
X8993991Y-15567031D02*
X9003515Y-15557508D01*
X9003515Y-15557508D02*
X9022563Y-15547984D01*
X9213039Y-15547984D02*
X9232086Y-15547984D01*
X9232086Y-15547984D02*
X9251134Y-15557508D01*
X9251134Y-15557508D02*
X9260658Y-15567031D01*
X9260658Y-15567031D02*
X9270182Y-15586079D01*
X9270182Y-15586079D02*
X9279705Y-15624174D01*
X9279705Y-15624174D02*
X9279705Y-15671793D01*
X9279705Y-15671793D02*
X9270182Y-15709888D01*
X9270182Y-15709888D02*
X9260658Y-15728936D01*
X9260658Y-15728936D02*
X9251134Y-15738460D01*
X9251134Y-15738460D02*
X9232086Y-15747984D01*
X9232086Y-15747984D02*
X9213039Y-15747984D01*
X9213039Y-15747984D02*
X9193991Y-15738460D01*
X9193991Y-15738460D02*
X9184467Y-15728936D01*
X9184467Y-15728936D02*
X9174944Y-15709888D01*
X9174944Y-15709888D02*
X9165420Y-15671793D01*
X9165420Y-15671793D02*
X9165420Y-15624174D01*
X9165420Y-15624174D02*
X9174944Y-15586079D01*
X9174944Y-15586079D02*
X9184467Y-15567031D01*
X9184467Y-15567031D02*
X9193991Y-15557508D01*
X9193991Y-15557508D02*
X9213039Y-15547984D01*
X9365420Y-15747984D02*
X9365420Y-15614650D01*
X9365420Y-15633698D02*
X9374944Y-15624174D01*
X9374944Y-15624174D02*
X9393991Y-15614650D01*
X9393991Y-15614650D02*
X9422563Y-15614650D01*
X9422563Y-15614650D02*
X9441610Y-15624174D01*
X9441610Y-15624174D02*
X9451134Y-15643222D01*
X9451134Y-15643222D02*
X9451134Y-15747984D01*
X9451134Y-15643222D02*
X9460658Y-15624174D01*
X9460658Y-15624174D02*
X9479705Y-15614650D01*
X9479705Y-15614650D02*
X9508277Y-15614650D01*
X9508277Y-15614650D02*
X9527325Y-15624174D01*
X9527325Y-15624174D02*
X9536848Y-15643222D01*
X9536848Y-15643222D02*
X9536848Y-15747984D01*
X9632086Y-15747984D02*
X9632086Y-15614650D01*
X9632086Y-15633698D02*
X9641610Y-15624174D01*
X9641610Y-15624174D02*
X9660658Y-15614650D01*
X9660658Y-15614650D02*
X9689229Y-15614650D01*
X9689229Y-15614650D02*
X9708277Y-15624174D01*
X9708277Y-15624174D02*
X9717801Y-15643222D01*
X9717801Y-15643222D02*
X9717801Y-15747984D01*
X9717801Y-15643222D02*
X9727325Y-15624174D01*
X9727325Y-15624174D02*
X9746372Y-15614650D01*
X9746372Y-15614650D02*
X9774944Y-15614650D01*
X9774944Y-15614650D02*
X9793991Y-15624174D01*
X9793991Y-15624174D02*
X9803515Y-15643222D01*
X9803515Y-15643222D02*
X9803515Y-15747984D01*
X10193991Y-15538460D02*
X10022563Y-15795603D01*
X10451134Y-15547984D02*
X10470182Y-15547984D01*
X10470182Y-15547984D02*
X10489229Y-15557508D01*
X10489229Y-15557508D02*
X10498753Y-15567031D01*
X10498753Y-15567031D02*
X10508277Y-15586079D01*
X10508277Y-15586079D02*
X10517801Y-15624174D01*
X10517801Y-15624174D02*
X10517801Y-15671793D01*
X10517801Y-15671793D02*
X10508277Y-15709888D01*
X10508277Y-15709888D02*
X10498753Y-15728936D01*
X10498753Y-15728936D02*
X10489229Y-15738460D01*
X10489229Y-15738460D02*
X10470182Y-15747984D01*
X10470182Y-15747984D02*
X10451134Y-15747984D01*
X10451134Y-15747984D02*
X10432087Y-15738460D01*
X10432087Y-15738460D02*
X10422563Y-15728936D01*
X10422563Y-15728936D02*
X10413039Y-15709888D01*
X10413039Y-15709888D02*
X10403515Y-15671793D01*
X10403515Y-15671793D02*
X10403515Y-15624174D01*
X10403515Y-15624174D02*
X10413039Y-15586079D01*
X10413039Y-15586079D02*
X10422563Y-15567031D01*
X10422563Y-15567031D02*
X10432087Y-15557508D01*
X10432087Y-15557508D02*
X10451134Y-15547984D01*
X10603515Y-15728936D02*
X10613039Y-15738460D01*
X10613039Y-15738460D02*
X10603515Y-15747984D01*
X10603515Y-15747984D02*
X10593991Y-15738460D01*
X10593991Y-15738460D02*
X10603515Y-15728936D01*
X10603515Y-15728936D02*
X10603515Y-15747984D01*
X10736848Y-15547984D02*
X10755896Y-15547984D01*
X10755896Y-15547984D02*
X10774944Y-15557508D01*
X10774944Y-15557508D02*
X10784468Y-15567031D01*
X10784468Y-15567031D02*
X10793991Y-15586079D01*
X10793991Y-15586079D02*
X10803515Y-15624174D01*
X10803515Y-15624174D02*
X10803515Y-15671793D01*
X10803515Y-15671793D02*
X10793991Y-15709888D01*
X10793991Y-15709888D02*
X10784468Y-15728936D01*
X10784468Y-15728936D02*
X10774944Y-15738460D01*
X10774944Y-15738460D02*
X10755896Y-15747984D01*
X10755896Y-15747984D02*
X10736848Y-15747984D01*
X10736848Y-15747984D02*
X10717801Y-15738460D01*
X10717801Y-15738460D02*
X10708277Y-15728936D01*
X10708277Y-15728936D02*
X10698753Y-15709888D01*
X10698753Y-15709888D02*
X10689229Y-15671793D01*
X10689229Y-15671793D02*
X10689229Y-15624174D01*
X10689229Y-15624174D02*
X10698753Y-15586079D01*
X10698753Y-15586079D02*
X10708277Y-15567031D01*
X10708277Y-15567031D02*
X10717801Y-15557508D01*
X10717801Y-15557508D02*
X10736848Y-15547984D01*
X10870182Y-15547984D02*
X10993991Y-15547984D01*
X10993991Y-15547984D02*
X10927325Y-15624174D01*
X10927325Y-15624174D02*
X10955896Y-15624174D01*
X10955896Y-15624174D02*
X10974944Y-15633698D01*
X10974944Y-15633698D02*
X10984468Y-15643222D01*
X10984468Y-15643222D02*
X10993991Y-15662269D01*
X10993991Y-15662269D02*
X10993991Y-15709888D01*
X10993991Y-15709888D02*
X10984468Y-15728936D01*
X10984468Y-15728936D02*
X10974944Y-15738460D01*
X10974944Y-15738460D02*
X10955896Y-15747984D01*
X10955896Y-15747984D02*
X10898753Y-15747984D01*
X10898753Y-15747984D02*
X10879706Y-15738460D01*
X10879706Y-15738460D02*
X10870182Y-15728936D01*
X11184468Y-15747984D02*
X11070182Y-15747984D01*
X11127325Y-15747984D02*
X11127325Y-15547984D01*
X11127325Y-15547984D02*
X11108277Y-15576555D01*
X11108277Y-15576555D02*
X11089229Y-15595603D01*
X11089229Y-15595603D02*
X11070182Y-15605127D01*
X11365420Y-15547984D02*
X11270182Y-15547984D01*
X11270182Y-15547984D02*
X11260658Y-15643222D01*
X11260658Y-15643222D02*
X11270182Y-15633698D01*
X11270182Y-15633698D02*
X11289229Y-15624174D01*
X11289229Y-15624174D02*
X11336848Y-15624174D01*
X11336848Y-15624174D02*
X11355896Y-15633698D01*
X11355896Y-15633698D02*
X11365420Y-15643222D01*
X11365420Y-15643222D02*
X11374944Y-15662269D01*
X11374944Y-15662269D02*
X11374944Y-15709888D01*
X11374944Y-15709888D02*
X11365420Y-15728936D01*
X11365420Y-15728936D02*
X11355896Y-15738460D01*
X11355896Y-15738460D02*
X11336848Y-15747984D01*
X11336848Y-15747984D02*
X11289229Y-15747984D01*
X11289229Y-15747984D02*
X11270182Y-15738460D01*
X11270182Y-15738460D02*
X11260658Y-15728936D01*
X11451134Y-15547984D02*
X11451134Y-15586079D01*
X11527325Y-15547984D02*
X11527325Y-15586079D01*
X11822563Y-15824174D02*
X11813039Y-15814650D01*
X11813039Y-15814650D02*
X11793991Y-15786079D01*
X11793991Y-15786079D02*
X11784468Y-15767031D01*
X11784468Y-15767031D02*
X11774944Y-15738460D01*
X11774944Y-15738460D02*
X11765420Y-15690841D01*
X11765420Y-15690841D02*
X11765420Y-15652746D01*
X11765420Y-15652746D02*
X11774944Y-15605127D01*
X11774944Y-15605127D02*
X11784468Y-15576555D01*
X11784468Y-15576555D02*
X11793991Y-15557508D01*
X11793991Y-15557508D02*
X11813039Y-15528936D01*
X11813039Y-15528936D02*
X11822563Y-15519412D01*
X12003515Y-15747984D02*
X11889229Y-15747984D01*
X11946372Y-15747984D02*
X11946372Y-15547984D01*
X11946372Y-15547984D02*
X11927325Y-15576555D01*
X11927325Y-15576555D02*
X11908277Y-15595603D01*
X11908277Y-15595603D02*
X11889229Y-15605127D01*
X12174944Y-15547984D02*
X12136848Y-15547984D01*
X12136848Y-15547984D02*
X12117801Y-15557508D01*
X12117801Y-15557508D02*
X12108277Y-15567031D01*
X12108277Y-15567031D02*
X12089229Y-15595603D01*
X12089229Y-15595603D02*
X12079706Y-15633698D01*
X12079706Y-15633698D02*
X12079706Y-15709888D01*
X12079706Y-15709888D02*
X12089229Y-15728936D01*
X12089229Y-15728936D02*
X12098753Y-15738460D01*
X12098753Y-15738460D02*
X12117801Y-15747984D01*
X12117801Y-15747984D02*
X12155896Y-15747984D01*
X12155896Y-15747984D02*
X12174944Y-15738460D01*
X12174944Y-15738460D02*
X12184468Y-15728936D01*
X12184468Y-15728936D02*
X12193991Y-15709888D01*
X12193991Y-15709888D02*
X12193991Y-15662269D01*
X12193991Y-15662269D02*
X12184468Y-15643222D01*
X12184468Y-15643222D02*
X12174944Y-15633698D01*
X12174944Y-15633698D02*
X12155896Y-15624174D01*
X12155896Y-15624174D02*
X12117801Y-15624174D01*
X12117801Y-15624174D02*
X12098753Y-15633698D01*
X12098753Y-15633698D02*
X12089229Y-15643222D01*
X12089229Y-15643222D02*
X12079706Y-15662269D01*
X12432087Y-15747984D02*
X12432087Y-15547984D01*
X12517801Y-15747984D02*
X12517801Y-15643222D01*
X12517801Y-15643222D02*
X12508277Y-15624174D01*
X12508277Y-15624174D02*
X12489230Y-15614650D01*
X12489230Y-15614650D02*
X12460658Y-15614650D01*
X12460658Y-15614650D02*
X12441610Y-15624174D01*
X12441610Y-15624174D02*
X12432087Y-15633698D01*
X12641610Y-15747984D02*
X12622563Y-15738460D01*
X12622563Y-15738460D02*
X12613039Y-15728936D01*
X12613039Y-15728936D02*
X12603515Y-15709888D01*
X12603515Y-15709888D02*
X12603515Y-15652746D01*
X12603515Y-15652746D02*
X12613039Y-15633698D01*
X12613039Y-15633698D02*
X12622563Y-15624174D01*
X12622563Y-15624174D02*
X12641610Y-15614650D01*
X12641610Y-15614650D02*
X12670182Y-15614650D01*
X12670182Y-15614650D02*
X12689230Y-15624174D01*
X12689230Y-15624174D02*
X12698753Y-15633698D01*
X12698753Y-15633698D02*
X12708277Y-15652746D01*
X12708277Y-15652746D02*
X12708277Y-15709888D01*
X12708277Y-15709888D02*
X12698753Y-15728936D01*
X12698753Y-15728936D02*
X12689230Y-15738460D01*
X12689230Y-15738460D02*
X12670182Y-15747984D01*
X12670182Y-15747984D02*
X12641610Y-15747984D01*
X12822563Y-15747984D02*
X12803515Y-15738460D01*
X12803515Y-15738460D02*
X12793991Y-15719412D01*
X12793991Y-15719412D02*
X12793991Y-15547984D01*
X12974944Y-15738460D02*
X12955896Y-15747984D01*
X12955896Y-15747984D02*
X12917801Y-15747984D01*
X12917801Y-15747984D02*
X12898753Y-15738460D01*
X12898753Y-15738460D02*
X12889230Y-15719412D01*
X12889230Y-15719412D02*
X12889230Y-15643222D01*
X12889230Y-15643222D02*
X12898753Y-15624174D01*
X12898753Y-15624174D02*
X12917801Y-15614650D01*
X12917801Y-15614650D02*
X12955896Y-15614650D01*
X12955896Y-15614650D02*
X12974944Y-15624174D01*
X12974944Y-15624174D02*
X12984468Y-15643222D01*
X12984468Y-15643222D02*
X12984468Y-15662269D01*
X12984468Y-15662269D02*
X12889230Y-15681317D01*
X13060658Y-15738460D02*
X13079706Y-15747984D01*
X13079706Y-15747984D02*
X13117801Y-15747984D01*
X13117801Y-15747984D02*
X13136849Y-15738460D01*
X13136849Y-15738460D02*
X13146372Y-15719412D01*
X13146372Y-15719412D02*
X13146372Y-15709888D01*
X13146372Y-15709888D02*
X13136849Y-15690841D01*
X13136849Y-15690841D02*
X13117801Y-15681317D01*
X13117801Y-15681317D02*
X13089230Y-15681317D01*
X13089230Y-15681317D02*
X13070182Y-15671793D01*
X13070182Y-15671793D02*
X13060658Y-15652746D01*
X13060658Y-15652746D02*
X13060658Y-15643222D01*
X13060658Y-15643222D02*
X13070182Y-15624174D01*
X13070182Y-15624174D02*
X13089230Y-15614650D01*
X13089230Y-15614650D02*
X13117801Y-15614650D01*
X13117801Y-15614650D02*
X13136849Y-15624174D01*
X13213039Y-15824174D02*
X13222563Y-15814650D01*
X13222563Y-15814650D02*
X13241611Y-15786079D01*
X13241611Y-15786079D02*
X13251134Y-15767031D01*
X13251134Y-15767031D02*
X13260658Y-15738460D01*
X13260658Y-15738460D02*
X13270182Y-15690841D01*
X13270182Y-15690841D02*
X13270182Y-15652746D01*
X13270182Y-15652746D02*
X13260658Y-15605127D01*
X13260658Y-15605127D02*
X13251134Y-15576555D01*
X13251134Y-15576555D02*
X13241611Y-15557508D01*
X13241611Y-15557508D02*
X13222563Y-15528936D01*
X13222563Y-15528936D02*
X13213039Y-15519412D01*
D12*
X8197500Y-15870500D02*
X8197500Y-15970500D01*
X8147500Y-15920500D02*
X8247500Y-15920500D01*
D11*
X8613039Y-16011984D02*
X8498753Y-16011984D01*
X8555896Y-16011984D02*
X8555896Y-15811984D01*
X8555896Y-15811984D02*
X8536848Y-15840555D01*
X8536848Y-15840555D02*
X8517801Y-15859603D01*
X8517801Y-15859603D02*
X8498753Y-15869127D01*
X8698753Y-15992936D02*
X8708277Y-16002460D01*
X8708277Y-16002460D02*
X8698753Y-16011984D01*
X8698753Y-16011984D02*
X8689229Y-16002460D01*
X8689229Y-16002460D02*
X8698753Y-15992936D01*
X8698753Y-15992936D02*
X8698753Y-16011984D01*
X8832086Y-15811984D02*
X8851134Y-15811984D01*
X8851134Y-15811984D02*
X8870182Y-15821508D01*
X8870182Y-15821508D02*
X8879705Y-15831031D01*
X8879705Y-15831031D02*
X8889229Y-15850079D01*
X8889229Y-15850079D02*
X8898753Y-15888174D01*
X8898753Y-15888174D02*
X8898753Y-15935793D01*
X8898753Y-15935793D02*
X8889229Y-15973888D01*
X8889229Y-15973888D02*
X8879705Y-15992936D01*
X8879705Y-15992936D02*
X8870182Y-16002460D01*
X8870182Y-16002460D02*
X8851134Y-16011984D01*
X8851134Y-16011984D02*
X8832086Y-16011984D01*
X8832086Y-16011984D02*
X8813039Y-16002460D01*
X8813039Y-16002460D02*
X8803515Y-15992936D01*
X8803515Y-15992936D02*
X8793991Y-15973888D01*
X8793991Y-15973888D02*
X8784467Y-15935793D01*
X8784467Y-15935793D02*
X8784467Y-15888174D01*
X8784467Y-15888174D02*
X8793991Y-15850079D01*
X8793991Y-15850079D02*
X8803515Y-15831031D01*
X8803515Y-15831031D02*
X8813039Y-15821508D01*
X8813039Y-15821508D02*
X8832086Y-15811984D01*
X9022563Y-15811984D02*
X9041610Y-15811984D01*
X9041610Y-15811984D02*
X9060658Y-15821508D01*
X9060658Y-15821508D02*
X9070182Y-15831031D01*
X9070182Y-15831031D02*
X9079705Y-15850079D01*
X9079705Y-15850079D02*
X9089229Y-15888174D01*
X9089229Y-15888174D02*
X9089229Y-15935793D01*
X9089229Y-15935793D02*
X9079705Y-15973888D01*
X9079705Y-15973888D02*
X9070182Y-15992936D01*
X9070182Y-15992936D02*
X9060658Y-16002460D01*
X9060658Y-16002460D02*
X9041610Y-16011984D01*
X9041610Y-16011984D02*
X9022563Y-16011984D01*
X9022563Y-16011984D02*
X9003515Y-16002460D01*
X9003515Y-16002460D02*
X8993991Y-15992936D01*
X8993991Y-15992936D02*
X8984467Y-15973888D01*
X8984467Y-15973888D02*
X8974944Y-15935793D01*
X8974944Y-15935793D02*
X8974944Y-15888174D01*
X8974944Y-15888174D02*
X8984467Y-15850079D01*
X8984467Y-15850079D02*
X8993991Y-15831031D01*
X8993991Y-15831031D02*
X9003515Y-15821508D01*
X9003515Y-15821508D02*
X9022563Y-15811984D01*
X9213039Y-15811984D02*
X9232086Y-15811984D01*
X9232086Y-15811984D02*
X9251134Y-15821508D01*
X9251134Y-15821508D02*
X9260658Y-15831031D01*
X9260658Y-15831031D02*
X9270182Y-15850079D01*
X9270182Y-15850079D02*
X9279705Y-15888174D01*
X9279705Y-15888174D02*
X9279705Y-15935793D01*
X9279705Y-15935793D02*
X9270182Y-15973888D01*
X9270182Y-15973888D02*
X9260658Y-15992936D01*
X9260658Y-15992936D02*
X9251134Y-16002460D01*
X9251134Y-16002460D02*
X9232086Y-16011984D01*
X9232086Y-16011984D02*
X9213039Y-16011984D01*
X9213039Y-16011984D02*
X9193991Y-16002460D01*
X9193991Y-16002460D02*
X9184467Y-15992936D01*
X9184467Y-15992936D02*
X9174944Y-15973888D01*
X9174944Y-15973888D02*
X9165420Y-15935793D01*
X9165420Y-15935793D02*
X9165420Y-15888174D01*
X9165420Y-15888174D02*
X9174944Y-15850079D01*
X9174944Y-15850079D02*
X9184467Y-15831031D01*
X9184467Y-15831031D02*
X9193991Y-15821508D01*
X9193991Y-15821508D02*
X9213039Y-15811984D01*
X9365420Y-16011984D02*
X9365420Y-15878650D01*
X9365420Y-15897698D02*
X9374944Y-15888174D01*
X9374944Y-15888174D02*
X9393991Y-15878650D01*
X9393991Y-15878650D02*
X9422563Y-15878650D01*
X9422563Y-15878650D02*
X9441610Y-15888174D01*
X9441610Y-15888174D02*
X9451134Y-15907222D01*
X9451134Y-15907222D02*
X9451134Y-16011984D01*
X9451134Y-15907222D02*
X9460658Y-15888174D01*
X9460658Y-15888174D02*
X9479705Y-15878650D01*
X9479705Y-15878650D02*
X9508277Y-15878650D01*
X9508277Y-15878650D02*
X9527325Y-15888174D01*
X9527325Y-15888174D02*
X9536848Y-15907222D01*
X9536848Y-15907222D02*
X9536848Y-16011984D01*
X9632086Y-16011984D02*
X9632086Y-15878650D01*
X9632086Y-15897698D02*
X9641610Y-15888174D01*
X9641610Y-15888174D02*
X9660658Y-15878650D01*
X9660658Y-15878650D02*
X9689229Y-15878650D01*
X9689229Y-15878650D02*
X9708277Y-15888174D01*
X9708277Y-15888174D02*
X9717801Y-15907222D01*
X9717801Y-15907222D02*
X9717801Y-16011984D01*
X9717801Y-15907222D02*
X9727325Y-15888174D01*
X9727325Y-15888174D02*
X9746372Y-15878650D01*
X9746372Y-15878650D02*
X9774944Y-15878650D01*
X9774944Y-15878650D02*
X9793991Y-15888174D01*
X9793991Y-15888174D02*
X9803515Y-15907222D01*
X9803515Y-15907222D02*
X9803515Y-16011984D01*
X10193991Y-15802460D02*
X10022563Y-16059603D01*
X10451134Y-15811984D02*
X10470182Y-15811984D01*
X10470182Y-15811984D02*
X10489229Y-15821508D01*
X10489229Y-15821508D02*
X10498753Y-15831031D01*
X10498753Y-15831031D02*
X10508277Y-15850079D01*
X10508277Y-15850079D02*
X10517801Y-15888174D01*
X10517801Y-15888174D02*
X10517801Y-15935793D01*
X10517801Y-15935793D02*
X10508277Y-15973888D01*
X10508277Y-15973888D02*
X10498753Y-15992936D01*
X10498753Y-15992936D02*
X10489229Y-16002460D01*
X10489229Y-16002460D02*
X10470182Y-16011984D01*
X10470182Y-16011984D02*
X10451134Y-16011984D01*
X10451134Y-16011984D02*
X10432087Y-16002460D01*
X10432087Y-16002460D02*
X10422563Y-15992936D01*
X10422563Y-15992936D02*
X10413039Y-15973888D01*
X10413039Y-15973888D02*
X10403515Y-15935793D01*
X10403515Y-15935793D02*
X10403515Y-15888174D01*
X10403515Y-15888174D02*
X10413039Y-15850079D01*
X10413039Y-15850079D02*
X10422563Y-15831031D01*
X10422563Y-15831031D02*
X10432087Y-15821508D01*
X10432087Y-15821508D02*
X10451134Y-15811984D01*
X10603515Y-15992936D02*
X10613039Y-16002460D01*
X10613039Y-16002460D02*
X10603515Y-16011984D01*
X10603515Y-16011984D02*
X10593991Y-16002460D01*
X10593991Y-16002460D02*
X10603515Y-15992936D01*
X10603515Y-15992936D02*
X10603515Y-16011984D01*
X10736848Y-15811984D02*
X10755896Y-15811984D01*
X10755896Y-15811984D02*
X10774944Y-15821508D01*
X10774944Y-15821508D02*
X10784468Y-15831031D01*
X10784468Y-15831031D02*
X10793991Y-15850079D01*
X10793991Y-15850079D02*
X10803515Y-15888174D01*
X10803515Y-15888174D02*
X10803515Y-15935793D01*
X10803515Y-15935793D02*
X10793991Y-15973888D01*
X10793991Y-15973888D02*
X10784468Y-15992936D01*
X10784468Y-15992936D02*
X10774944Y-16002460D01*
X10774944Y-16002460D02*
X10755896Y-16011984D01*
X10755896Y-16011984D02*
X10736848Y-16011984D01*
X10736848Y-16011984D02*
X10717801Y-16002460D01*
X10717801Y-16002460D02*
X10708277Y-15992936D01*
X10708277Y-15992936D02*
X10698753Y-15973888D01*
X10698753Y-15973888D02*
X10689229Y-15935793D01*
X10689229Y-15935793D02*
X10689229Y-15888174D01*
X10689229Y-15888174D02*
X10698753Y-15850079D01*
X10698753Y-15850079D02*
X10708277Y-15831031D01*
X10708277Y-15831031D02*
X10717801Y-15821508D01*
X10717801Y-15821508D02*
X10736848Y-15811984D01*
X10870182Y-15811984D02*
X10993991Y-15811984D01*
X10993991Y-15811984D02*
X10927325Y-15888174D01*
X10927325Y-15888174D02*
X10955896Y-15888174D01*
X10955896Y-15888174D02*
X10974944Y-15897698D01*
X10974944Y-15897698D02*
X10984468Y-15907222D01*
X10984468Y-15907222D02*
X10993991Y-15926269D01*
X10993991Y-15926269D02*
X10993991Y-15973888D01*
X10993991Y-15973888D02*
X10984468Y-15992936D01*
X10984468Y-15992936D02*
X10974944Y-16002460D01*
X10974944Y-16002460D02*
X10955896Y-16011984D01*
X10955896Y-16011984D02*
X10898753Y-16011984D01*
X10898753Y-16011984D02*
X10879706Y-16002460D01*
X10879706Y-16002460D02*
X10870182Y-15992936D01*
X11089229Y-16011984D02*
X11127325Y-16011984D01*
X11127325Y-16011984D02*
X11146372Y-16002460D01*
X11146372Y-16002460D02*
X11155896Y-15992936D01*
X11155896Y-15992936D02*
X11174944Y-15964365D01*
X11174944Y-15964365D02*
X11184468Y-15926269D01*
X11184468Y-15926269D02*
X11184468Y-15850079D01*
X11184468Y-15850079D02*
X11174944Y-15831031D01*
X11174944Y-15831031D02*
X11165420Y-15821508D01*
X11165420Y-15821508D02*
X11146372Y-15811984D01*
X11146372Y-15811984D02*
X11108277Y-15811984D01*
X11108277Y-15811984D02*
X11089229Y-15821508D01*
X11089229Y-15821508D02*
X11079706Y-15831031D01*
X11079706Y-15831031D02*
X11070182Y-15850079D01*
X11070182Y-15850079D02*
X11070182Y-15897698D01*
X11070182Y-15897698D02*
X11079706Y-15916746D01*
X11079706Y-15916746D02*
X11089229Y-15926269D01*
X11089229Y-15926269D02*
X11108277Y-15935793D01*
X11108277Y-15935793D02*
X11146372Y-15935793D01*
X11146372Y-15935793D02*
X11165420Y-15926269D01*
X11165420Y-15926269D02*
X11174944Y-15916746D01*
X11174944Y-15916746D02*
X11184468Y-15897698D01*
X11355896Y-15878650D02*
X11355896Y-16011984D01*
X11308277Y-15802460D02*
X11260658Y-15945317D01*
X11260658Y-15945317D02*
X11384467Y-15945317D01*
X11451134Y-15811984D02*
X11451134Y-15850079D01*
X11527325Y-15811984D02*
X11527325Y-15850079D01*
X11822563Y-16088174D02*
X11813039Y-16078650D01*
X11813039Y-16078650D02*
X11793991Y-16050079D01*
X11793991Y-16050079D02*
X11784468Y-16031031D01*
X11784468Y-16031031D02*
X11774944Y-16002460D01*
X11774944Y-16002460D02*
X11765420Y-15954841D01*
X11765420Y-15954841D02*
X11765420Y-15916746D01*
X11765420Y-15916746D02*
X11774944Y-15869127D01*
X11774944Y-15869127D02*
X11784468Y-15840555D01*
X11784468Y-15840555D02*
X11793991Y-15821508D01*
X11793991Y-15821508D02*
X11813039Y-15792936D01*
X11813039Y-15792936D02*
X11822563Y-15783412D01*
X11879706Y-15811984D02*
X12003515Y-15811984D01*
X12003515Y-15811984D02*
X11936848Y-15888174D01*
X11936848Y-15888174D02*
X11965420Y-15888174D01*
X11965420Y-15888174D02*
X11984468Y-15897698D01*
X11984468Y-15897698D02*
X11993991Y-15907222D01*
X11993991Y-15907222D02*
X12003515Y-15926269D01*
X12003515Y-15926269D02*
X12003515Y-15973888D01*
X12003515Y-15973888D02*
X11993991Y-15992936D01*
X11993991Y-15992936D02*
X11984468Y-16002460D01*
X11984468Y-16002460D02*
X11965420Y-16011984D01*
X11965420Y-16011984D02*
X11908277Y-16011984D01*
X11908277Y-16011984D02*
X11889229Y-16002460D01*
X11889229Y-16002460D02*
X11879706Y-15992936D01*
X12174944Y-15811984D02*
X12136848Y-15811984D01*
X12136848Y-15811984D02*
X12117801Y-15821508D01*
X12117801Y-15821508D02*
X12108277Y-15831031D01*
X12108277Y-15831031D02*
X12089229Y-15859603D01*
X12089229Y-15859603D02*
X12079706Y-15897698D01*
X12079706Y-15897698D02*
X12079706Y-15973888D01*
X12079706Y-15973888D02*
X12089229Y-15992936D01*
X12089229Y-15992936D02*
X12098753Y-16002460D01*
X12098753Y-16002460D02*
X12117801Y-16011984D01*
X12117801Y-16011984D02*
X12155896Y-16011984D01*
X12155896Y-16011984D02*
X12174944Y-16002460D01*
X12174944Y-16002460D02*
X12184468Y-15992936D01*
X12184468Y-15992936D02*
X12193991Y-15973888D01*
X12193991Y-15973888D02*
X12193991Y-15926269D01*
X12193991Y-15926269D02*
X12184468Y-15907222D01*
X12184468Y-15907222D02*
X12174944Y-15897698D01*
X12174944Y-15897698D02*
X12155896Y-15888174D01*
X12155896Y-15888174D02*
X12117801Y-15888174D01*
X12117801Y-15888174D02*
X12098753Y-15897698D01*
X12098753Y-15897698D02*
X12089229Y-15907222D01*
X12089229Y-15907222D02*
X12079706Y-15926269D01*
X12432087Y-16011984D02*
X12432087Y-15811984D01*
X12517801Y-16011984D02*
X12517801Y-15907222D01*
X12517801Y-15907222D02*
X12508277Y-15888174D01*
X12508277Y-15888174D02*
X12489230Y-15878650D01*
X12489230Y-15878650D02*
X12460658Y-15878650D01*
X12460658Y-15878650D02*
X12441610Y-15888174D01*
X12441610Y-15888174D02*
X12432087Y-15897698D01*
X12641610Y-16011984D02*
X12622563Y-16002460D01*
X12622563Y-16002460D02*
X12613039Y-15992936D01*
X12613039Y-15992936D02*
X12603515Y-15973888D01*
X12603515Y-15973888D02*
X12603515Y-15916746D01*
X12603515Y-15916746D02*
X12613039Y-15897698D01*
X12613039Y-15897698D02*
X12622563Y-15888174D01*
X12622563Y-15888174D02*
X12641610Y-15878650D01*
X12641610Y-15878650D02*
X12670182Y-15878650D01*
X12670182Y-15878650D02*
X12689230Y-15888174D01*
X12689230Y-15888174D02*
X12698753Y-15897698D01*
X12698753Y-15897698D02*
X12708277Y-15916746D01*
X12708277Y-15916746D02*
X12708277Y-15973888D01*
X12708277Y-15973888D02*
X12698753Y-15992936D01*
X12698753Y-15992936D02*
X12689230Y-16002460D01*
X12689230Y-16002460D02*
X12670182Y-16011984D01*
X12670182Y-16011984D02*
X12641610Y-16011984D01*
X12822563Y-16011984D02*
X12803515Y-16002460D01*
X12803515Y-16002460D02*
X12793991Y-15983412D01*
X12793991Y-15983412D02*
X12793991Y-15811984D01*
X12974944Y-16002460D02*
X12955896Y-16011984D01*
X12955896Y-16011984D02*
X12917801Y-16011984D01*
X12917801Y-16011984D02*
X12898753Y-16002460D01*
X12898753Y-16002460D02*
X12889230Y-15983412D01*
X12889230Y-15983412D02*
X12889230Y-15907222D01*
X12889230Y-15907222D02*
X12898753Y-15888174D01*
X12898753Y-15888174D02*
X12917801Y-15878650D01*
X12917801Y-15878650D02*
X12955896Y-15878650D01*
X12955896Y-15878650D02*
X12974944Y-15888174D01*
X12974944Y-15888174D02*
X12984468Y-15907222D01*
X12984468Y-15907222D02*
X12984468Y-15926269D01*
X12984468Y-15926269D02*
X12889230Y-15945317D01*
X13060658Y-16002460D02*
X13079706Y-16011984D01*
X13079706Y-16011984D02*
X13117801Y-16011984D01*
X13117801Y-16011984D02*
X13136849Y-16002460D01*
X13136849Y-16002460D02*
X13146372Y-15983412D01*
X13146372Y-15983412D02*
X13146372Y-15973888D01*
X13146372Y-15973888D02*
X13136849Y-15954841D01*
X13136849Y-15954841D02*
X13117801Y-15945317D01*
X13117801Y-15945317D02*
X13089230Y-15945317D01*
X13089230Y-15945317D02*
X13070182Y-15935793D01*
X13070182Y-15935793D02*
X13060658Y-15916746D01*
X13060658Y-15916746D02*
X13060658Y-15907222D01*
X13060658Y-15907222D02*
X13070182Y-15888174D01*
X13070182Y-15888174D02*
X13089230Y-15878650D01*
X13089230Y-15878650D02*
X13117801Y-15878650D01*
X13117801Y-15878650D02*
X13136849Y-15888174D01*
X13213039Y-16088174D02*
X13222563Y-16078650D01*
X13222563Y-16078650D02*
X13241611Y-16050079D01*
X13241611Y-16050079D02*
X13251134Y-16031031D01*
X13251134Y-16031031D02*
X13260658Y-16002460D01*
X13260658Y-16002460D02*
X13270182Y-15954841D01*
X13270182Y-15954841D02*
X13270182Y-15916746D01*
X13270182Y-15916746D02*
X13260658Y-15869127D01*
X13260658Y-15869127D02*
X13251134Y-15840555D01*
X13251134Y-15840555D02*
X13241611Y-15821508D01*
X13241611Y-15821508D02*
X13222563Y-15792936D01*
X13222563Y-15792936D02*
X13213039Y-15783412D01*
X8218211Y-16255211D02*
X8218211Y-16113789D01*
X8076789Y-16113789D01*
X8076789Y-16255211D01*
X8218211Y-16255211D01*
X8498753Y-16095031D02*
X8508277Y-16085508D01*
X8508277Y-16085508D02*
X8527324Y-16075984D01*
X8527324Y-16075984D02*
X8574944Y-16075984D01*
X8574944Y-16075984D02*
X8593991Y-16085508D01*
X8593991Y-16085508D02*
X8603515Y-16095031D01*
X8603515Y-16095031D02*
X8613039Y-16114079D01*
X8613039Y-16114079D02*
X8613039Y-16133127D01*
X8613039Y-16133127D02*
X8603515Y-16161698D01*
X8603515Y-16161698D02*
X8489229Y-16275984D01*
X8489229Y-16275984D02*
X8613039Y-16275984D01*
X8698753Y-16256936D02*
X8708277Y-16266460D01*
X8708277Y-16266460D02*
X8698753Y-16275984D01*
X8698753Y-16275984D02*
X8689229Y-16266460D01*
X8689229Y-16266460D02*
X8698753Y-16256936D01*
X8698753Y-16256936D02*
X8698753Y-16275984D01*
X8879705Y-16142650D02*
X8879705Y-16275984D01*
X8832086Y-16066460D02*
X8784467Y-16209317D01*
X8784467Y-16209317D02*
X8908277Y-16209317D01*
X9022563Y-16075984D02*
X9041610Y-16075984D01*
X9041610Y-16075984D02*
X9060658Y-16085508D01*
X9060658Y-16085508D02*
X9070182Y-16095031D01*
X9070182Y-16095031D02*
X9079705Y-16114079D01*
X9079705Y-16114079D02*
X9089229Y-16152174D01*
X9089229Y-16152174D02*
X9089229Y-16199793D01*
X9089229Y-16199793D02*
X9079705Y-16237888D01*
X9079705Y-16237888D02*
X9070182Y-16256936D01*
X9070182Y-16256936D02*
X9060658Y-16266460D01*
X9060658Y-16266460D02*
X9041610Y-16275984D01*
X9041610Y-16275984D02*
X9022563Y-16275984D01*
X9022563Y-16275984D02*
X9003515Y-16266460D01*
X9003515Y-16266460D02*
X8993991Y-16256936D01*
X8993991Y-16256936D02*
X8984467Y-16237888D01*
X8984467Y-16237888D02*
X8974944Y-16199793D01*
X8974944Y-16199793D02*
X8974944Y-16152174D01*
X8974944Y-16152174D02*
X8984467Y-16114079D01*
X8984467Y-16114079D02*
X8993991Y-16095031D01*
X8993991Y-16095031D02*
X9003515Y-16085508D01*
X9003515Y-16085508D02*
X9022563Y-16075984D01*
X9213039Y-16075984D02*
X9232086Y-16075984D01*
X9232086Y-16075984D02*
X9251134Y-16085508D01*
X9251134Y-16085508D02*
X9260658Y-16095031D01*
X9260658Y-16095031D02*
X9270182Y-16114079D01*
X9270182Y-16114079D02*
X9279705Y-16152174D01*
X9279705Y-16152174D02*
X9279705Y-16199793D01*
X9279705Y-16199793D02*
X9270182Y-16237888D01*
X9270182Y-16237888D02*
X9260658Y-16256936D01*
X9260658Y-16256936D02*
X9251134Y-16266460D01*
X9251134Y-16266460D02*
X9232086Y-16275984D01*
X9232086Y-16275984D02*
X9213039Y-16275984D01*
X9213039Y-16275984D02*
X9193991Y-16266460D01*
X9193991Y-16266460D02*
X9184467Y-16256936D01*
X9184467Y-16256936D02*
X9174944Y-16237888D01*
X9174944Y-16237888D02*
X9165420Y-16199793D01*
X9165420Y-16199793D02*
X9165420Y-16152174D01*
X9165420Y-16152174D02*
X9174944Y-16114079D01*
X9174944Y-16114079D02*
X9184467Y-16095031D01*
X9184467Y-16095031D02*
X9193991Y-16085508D01*
X9193991Y-16085508D02*
X9213039Y-16075984D01*
X9365420Y-16275984D02*
X9365420Y-16142650D01*
X9365420Y-16161698D02*
X9374944Y-16152174D01*
X9374944Y-16152174D02*
X9393991Y-16142650D01*
X9393991Y-16142650D02*
X9422563Y-16142650D01*
X9422563Y-16142650D02*
X9441610Y-16152174D01*
X9441610Y-16152174D02*
X9451134Y-16171222D01*
X9451134Y-16171222D02*
X9451134Y-16275984D01*
X9451134Y-16171222D02*
X9460658Y-16152174D01*
X9460658Y-16152174D02*
X9479705Y-16142650D01*
X9479705Y-16142650D02*
X9508277Y-16142650D01*
X9508277Y-16142650D02*
X9527325Y-16152174D01*
X9527325Y-16152174D02*
X9536848Y-16171222D01*
X9536848Y-16171222D02*
X9536848Y-16275984D01*
X9632086Y-16275984D02*
X9632086Y-16142650D01*
X9632086Y-16161698D02*
X9641610Y-16152174D01*
X9641610Y-16152174D02*
X9660658Y-16142650D01*
X9660658Y-16142650D02*
X9689229Y-16142650D01*
X9689229Y-16142650D02*
X9708277Y-16152174D01*
X9708277Y-16152174D02*
X9717801Y-16171222D01*
X9717801Y-16171222D02*
X9717801Y-16275984D01*
X9717801Y-16171222D02*
X9727325Y-16152174D01*
X9727325Y-16152174D02*
X9746372Y-16142650D01*
X9746372Y-16142650D02*
X9774944Y-16142650D01*
X9774944Y-16142650D02*
X9793991Y-16152174D01*
X9793991Y-16152174D02*
X9803515Y-16171222D01*
X9803515Y-16171222D02*
X9803515Y-16275984D01*
X10193991Y-16066460D02*
X10022563Y-16323603D01*
X10451134Y-16075984D02*
X10470182Y-16075984D01*
X10470182Y-16075984D02*
X10489229Y-16085508D01*
X10489229Y-16085508D02*
X10498753Y-16095031D01*
X10498753Y-16095031D02*
X10508277Y-16114079D01*
X10508277Y-16114079D02*
X10517801Y-16152174D01*
X10517801Y-16152174D02*
X10517801Y-16199793D01*
X10517801Y-16199793D02*
X10508277Y-16237888D01*
X10508277Y-16237888D02*
X10498753Y-16256936D01*
X10498753Y-16256936D02*
X10489229Y-16266460D01*
X10489229Y-16266460D02*
X10470182Y-16275984D01*
X10470182Y-16275984D02*
X10451134Y-16275984D01*
X10451134Y-16275984D02*
X10432087Y-16266460D01*
X10432087Y-16266460D02*
X10422563Y-16256936D01*
X10422563Y-16256936D02*
X10413039Y-16237888D01*
X10413039Y-16237888D02*
X10403515Y-16199793D01*
X10403515Y-16199793D02*
X10403515Y-16152174D01*
X10403515Y-16152174D02*
X10413039Y-16114079D01*
X10413039Y-16114079D02*
X10422563Y-16095031D01*
X10422563Y-16095031D02*
X10432087Y-16085508D01*
X10432087Y-16085508D02*
X10451134Y-16075984D01*
X10603515Y-16256936D02*
X10613039Y-16266460D01*
X10613039Y-16266460D02*
X10603515Y-16275984D01*
X10603515Y-16275984D02*
X10593991Y-16266460D01*
X10593991Y-16266460D02*
X10603515Y-16256936D01*
X10603515Y-16256936D02*
X10603515Y-16275984D01*
X10736848Y-16075984D02*
X10755896Y-16075984D01*
X10755896Y-16075984D02*
X10774944Y-16085508D01*
X10774944Y-16085508D02*
X10784468Y-16095031D01*
X10784468Y-16095031D02*
X10793991Y-16114079D01*
X10793991Y-16114079D02*
X10803515Y-16152174D01*
X10803515Y-16152174D02*
X10803515Y-16199793D01*
X10803515Y-16199793D02*
X10793991Y-16237888D01*
X10793991Y-16237888D02*
X10784468Y-16256936D01*
X10784468Y-16256936D02*
X10774944Y-16266460D01*
X10774944Y-16266460D02*
X10755896Y-16275984D01*
X10755896Y-16275984D02*
X10736848Y-16275984D01*
X10736848Y-16275984D02*
X10717801Y-16266460D01*
X10717801Y-16266460D02*
X10708277Y-16256936D01*
X10708277Y-16256936D02*
X10698753Y-16237888D01*
X10698753Y-16237888D02*
X10689229Y-16199793D01*
X10689229Y-16199793D02*
X10689229Y-16152174D01*
X10689229Y-16152174D02*
X10698753Y-16114079D01*
X10698753Y-16114079D02*
X10708277Y-16095031D01*
X10708277Y-16095031D02*
X10717801Y-16085508D01*
X10717801Y-16085508D02*
X10736848Y-16075984D01*
X10898753Y-16275984D02*
X10936848Y-16275984D01*
X10936848Y-16275984D02*
X10955896Y-16266460D01*
X10955896Y-16266460D02*
X10965420Y-16256936D01*
X10965420Y-16256936D02*
X10984468Y-16228365D01*
X10984468Y-16228365D02*
X10993991Y-16190269D01*
X10993991Y-16190269D02*
X10993991Y-16114079D01*
X10993991Y-16114079D02*
X10984468Y-16095031D01*
X10984468Y-16095031D02*
X10974944Y-16085508D01*
X10974944Y-16085508D02*
X10955896Y-16075984D01*
X10955896Y-16075984D02*
X10917801Y-16075984D01*
X10917801Y-16075984D02*
X10898753Y-16085508D01*
X10898753Y-16085508D02*
X10889229Y-16095031D01*
X10889229Y-16095031D02*
X10879706Y-16114079D01*
X10879706Y-16114079D02*
X10879706Y-16161698D01*
X10879706Y-16161698D02*
X10889229Y-16180746D01*
X10889229Y-16180746D02*
X10898753Y-16190269D01*
X10898753Y-16190269D02*
X10917801Y-16199793D01*
X10917801Y-16199793D02*
X10955896Y-16199793D01*
X10955896Y-16199793D02*
X10974944Y-16190269D01*
X10974944Y-16190269D02*
X10984468Y-16180746D01*
X10984468Y-16180746D02*
X10993991Y-16161698D01*
X11165420Y-16142650D02*
X11165420Y-16275984D01*
X11117801Y-16066460D02*
X11070182Y-16209317D01*
X11070182Y-16209317D02*
X11193991Y-16209317D01*
X11365420Y-16075984D02*
X11270182Y-16075984D01*
X11270182Y-16075984D02*
X11260658Y-16171222D01*
X11260658Y-16171222D02*
X11270182Y-16161698D01*
X11270182Y-16161698D02*
X11289229Y-16152174D01*
X11289229Y-16152174D02*
X11336848Y-16152174D01*
X11336848Y-16152174D02*
X11355896Y-16161698D01*
X11355896Y-16161698D02*
X11365420Y-16171222D01*
X11365420Y-16171222D02*
X11374944Y-16190269D01*
X11374944Y-16190269D02*
X11374944Y-16237888D01*
X11374944Y-16237888D02*
X11365420Y-16256936D01*
X11365420Y-16256936D02*
X11355896Y-16266460D01*
X11355896Y-16266460D02*
X11336848Y-16275984D01*
X11336848Y-16275984D02*
X11289229Y-16275984D01*
X11289229Y-16275984D02*
X11270182Y-16266460D01*
X11270182Y-16266460D02*
X11260658Y-16256936D01*
X11451134Y-16075984D02*
X11451134Y-16114079D01*
X11527325Y-16075984D02*
X11527325Y-16114079D01*
X11822563Y-16352174D02*
X11813039Y-16342650D01*
X11813039Y-16342650D02*
X11793991Y-16314079D01*
X11793991Y-16314079D02*
X11784468Y-16295031D01*
X11784468Y-16295031D02*
X11774944Y-16266460D01*
X11774944Y-16266460D02*
X11765420Y-16218841D01*
X11765420Y-16218841D02*
X11765420Y-16180746D01*
X11765420Y-16180746D02*
X11774944Y-16133127D01*
X11774944Y-16133127D02*
X11784468Y-16104555D01*
X11784468Y-16104555D02*
X11793991Y-16085508D01*
X11793991Y-16085508D02*
X11813039Y-16056936D01*
X11813039Y-16056936D02*
X11822563Y-16047412D01*
X11984468Y-16142650D02*
X11984468Y-16275984D01*
X11936848Y-16066460D02*
X11889229Y-16209317D01*
X11889229Y-16209317D02*
X12013039Y-16209317D01*
X12241610Y-16275984D02*
X12241610Y-16075984D01*
X12327325Y-16275984D02*
X12327325Y-16171222D01*
X12327325Y-16171222D02*
X12317801Y-16152174D01*
X12317801Y-16152174D02*
X12298753Y-16142650D01*
X12298753Y-16142650D02*
X12270182Y-16142650D01*
X12270182Y-16142650D02*
X12251134Y-16152174D01*
X12251134Y-16152174D02*
X12241610Y-16161698D01*
X12451134Y-16275984D02*
X12432087Y-16266460D01*
X12432087Y-16266460D02*
X12422563Y-16256936D01*
X12422563Y-16256936D02*
X12413039Y-16237888D01*
X12413039Y-16237888D02*
X12413039Y-16180746D01*
X12413039Y-16180746D02*
X12422563Y-16161698D01*
X12422563Y-16161698D02*
X12432087Y-16152174D01*
X12432087Y-16152174D02*
X12451134Y-16142650D01*
X12451134Y-16142650D02*
X12479706Y-16142650D01*
X12479706Y-16142650D02*
X12498753Y-16152174D01*
X12498753Y-16152174D02*
X12508277Y-16161698D01*
X12508277Y-16161698D02*
X12517801Y-16180746D01*
X12517801Y-16180746D02*
X12517801Y-16237888D01*
X12517801Y-16237888D02*
X12508277Y-16256936D01*
X12508277Y-16256936D02*
X12498753Y-16266460D01*
X12498753Y-16266460D02*
X12479706Y-16275984D01*
X12479706Y-16275984D02*
X12451134Y-16275984D01*
X12632087Y-16275984D02*
X12613039Y-16266460D01*
X12613039Y-16266460D02*
X12603515Y-16247412D01*
X12603515Y-16247412D02*
X12603515Y-16075984D01*
X12784468Y-16266460D02*
X12765420Y-16275984D01*
X12765420Y-16275984D02*
X12727325Y-16275984D01*
X12727325Y-16275984D02*
X12708277Y-16266460D01*
X12708277Y-16266460D02*
X12698753Y-16247412D01*
X12698753Y-16247412D02*
X12698753Y-16171222D01*
X12698753Y-16171222D02*
X12708277Y-16152174D01*
X12708277Y-16152174D02*
X12727325Y-16142650D01*
X12727325Y-16142650D02*
X12765420Y-16142650D01*
X12765420Y-16142650D02*
X12784468Y-16152174D01*
X12784468Y-16152174D02*
X12793991Y-16171222D01*
X12793991Y-16171222D02*
X12793991Y-16190269D01*
X12793991Y-16190269D02*
X12698753Y-16209317D01*
X12870182Y-16266460D02*
X12889230Y-16275984D01*
X12889230Y-16275984D02*
X12927325Y-16275984D01*
X12927325Y-16275984D02*
X12946372Y-16266460D01*
X12946372Y-16266460D02*
X12955896Y-16247412D01*
X12955896Y-16247412D02*
X12955896Y-16237888D01*
X12955896Y-16237888D02*
X12946372Y-16218841D01*
X12946372Y-16218841D02*
X12927325Y-16209317D01*
X12927325Y-16209317D02*
X12898753Y-16209317D01*
X12898753Y-16209317D02*
X12879706Y-16199793D01*
X12879706Y-16199793D02*
X12870182Y-16180746D01*
X12870182Y-16180746D02*
X12870182Y-16171222D01*
X12870182Y-16171222D02*
X12879706Y-16152174D01*
X12879706Y-16152174D02*
X12898753Y-16142650D01*
X12898753Y-16142650D02*
X12927325Y-16142650D01*
X12927325Y-16142650D02*
X12946372Y-16152174D01*
X13022563Y-16352174D02*
X13032087Y-16342650D01*
X13032087Y-16342650D02*
X13051134Y-16314079D01*
X13051134Y-16314079D02*
X13060658Y-16295031D01*
X13060658Y-16295031D02*
X13070182Y-16266460D01*
X13070182Y-16266460D02*
X13079706Y-16218841D01*
X13079706Y-16218841D02*
X13079706Y-16180746D01*
X13079706Y-16180746D02*
X13070182Y-16133127D01*
X13070182Y-16133127D02*
X13060658Y-16104555D01*
X13060658Y-16104555D02*
X13051134Y-16085508D01*
X13051134Y-16085508D02*
X13032087Y-16056936D01*
X13032087Y-16056936D02*
X13022563Y-16047412D01*
M02*
