%TF.GenerationSoftware,KiCad,Pcbnew,8.0.8*%
%TF.CreationDate,2025-10-11T21:39:39+03:00*%
%TF.ProjectId,Dual solar tracking system before routing Austin,4475616c-2073-46f6-9c61-722074726163,rev?*%
%TF.SameCoordinates,Original*%
%TF.FileFunction,Copper,L2,Bot*%
%TF.FilePolarity,Positive*%
%FSLAX46Y46*%
G04 Gerber Fmt 4.6, Leading zero omitted, Abs format (unit mm)*
G04 Created by KiCad (PCBNEW 8.0.8) date 2025-10-11 21:39:39*
%MOMM*%
%LPD*%
G01*
G04 APERTURE LIST*
%TA.AperFunction,ComponentPad*%
%ADD10C,1.600000*%
%TD*%
%TA.AperFunction,ComponentPad*%
%ADD11O,1.600000X1.600000*%
%TD*%
%TA.AperFunction,ComponentPad*%
%ADD12R,1.700000X1.700000*%
%TD*%
%TA.AperFunction,ComponentPad*%
%ADD13O,1.700000X1.700000*%
%TD*%
%TA.AperFunction,ComponentPad*%
%ADD14R,3.000000X3.000000*%
%TD*%
%TA.AperFunction,ComponentPad*%
%ADD15C,3.000000*%
%TD*%
%TA.AperFunction,ComponentPad*%
%ADD16R,1.600000X1.600000*%
%TD*%
%TA.AperFunction,ViaPad*%
%ADD17C,0.600000*%
%TD*%
%TA.AperFunction,Conductor*%
%ADD18C,0.200000*%
%TD*%
G04 APERTURE END LIST*
D10*
%TO.P,R1,1*%
%TO.N,Net-(A1-A0)*%
X89190000Y-90500000D03*
D11*
%TO.P,R1,2*%
%TO.N,Net-(R1-Pad2)*%
X89190000Y-82880000D03*
%TD*%
D12*
%TO.P,M1,1,PWM*%
%TO.N,Net-(A1-D9)*%
X139125000Y-65975000D03*
D13*
%TO.P,M1,2,+*%
%TO.N,Net-(BT1-+)*%
X139125000Y-68515000D03*
%TO.P,M1,3,-*%
%TO.N,Net-(BT1--)*%
X139125000Y-71055000D03*
%TD*%
D10*
%TO.P,R4,1*%
%TO.N,+5V*%
X104500000Y-59800000D03*
%TO.P,R4,2*%
%TO.N,Net-(A1-A1)*%
X104500000Y-52200000D03*
%TD*%
%TO.P,R7,1*%
%TO.N,+5V*%
X132500000Y-60800000D03*
%TO.P,R7,2*%
%TO.N,Net-(R7-Pad2)*%
X132500000Y-53200000D03*
%TD*%
%TO.P,R6,1*%
%TO.N,Net-(A1-A2)*%
X120000000Y-91810000D03*
D11*
%TO.P,R6,2*%
%TO.N,Net-(R6-Pad2)*%
X120000000Y-84190000D03*
%TD*%
D10*
%TO.P,R8,1*%
%TO.N,Net-(R7-Pad2)*%
X132000000Y-92310000D03*
D11*
%TO.P,R8,2*%
%TO.N,Net-(R6-Pad2)*%
X132000000Y-84690000D03*
%TD*%
D10*
%TO.P,R2,1*%
%TO.N,Net-(A1-A1)*%
X105500000Y-91310000D03*
D11*
%TO.P,R2,2*%
%TO.N,Net-(R1-Pad2)*%
X105500000Y-83690000D03*
%TD*%
D14*
%TO.P,BT1,1,+*%
%TO.N,Net-(BT1-+)*%
X176200000Y-53000000D03*
D15*
%TO.P,BT1,2,-*%
%TO.N,Net-(BT1--)*%
X163500000Y-53000000D03*
%TD*%
D16*
%TO.P,A1,1,D1/TX*%
%TO.N,unconnected-(A1-D1{slash}TX-Pad1)*%
X88260000Y-103100000D03*
D11*
%TO.P,A1,2,D0/RX*%
%TO.N,unconnected-(A1-D0{slash}RX-Pad2)*%
X88260000Y-105640000D03*
%TO.P,A1,3,~{RESET}*%
%TO.N,unconnected-(A1-~{RESET}-Pad3)*%
X88260000Y-108180000D03*
%TO.P,A1,4,GND*%
%TO.N,Net-(A1-GND-Pad29)*%
X88260000Y-110720000D03*
%TO.P,A1,5,D2*%
%TO.N,unconnected-(A1-D2-Pad5)*%
X88260000Y-113260000D03*
%TO.P,A1,6,D3*%
%TO.N,unconnected-(A1-D3-Pad6)*%
X88260000Y-115800000D03*
%TO.P,A1,7,D4*%
%TO.N,unconnected-(A1-D4-Pad7)*%
X88260000Y-118340000D03*
%TO.P,A1,8,D5*%
%TO.N,unconnected-(A1-D5-Pad8)*%
X88260000Y-120880000D03*
%TO.P,A1,9,D6*%
%TO.N,unconnected-(A1-D6-Pad9)*%
X88260000Y-123420000D03*
%TO.P,A1,10,D7*%
%TO.N,unconnected-(A1-D7-Pad10)*%
X88260000Y-125960000D03*
%TO.P,A1,11,D8*%
%TO.N,unconnected-(A1-D8-Pad11)*%
X88260000Y-128500000D03*
%TO.P,A1,12,D9*%
%TO.N,Net-(A1-D9)*%
X88260000Y-131040000D03*
%TO.P,A1,13,D10*%
%TO.N,Net-(A1-D10)*%
X88260000Y-133580000D03*
%TO.P,A1,14,D11*%
%TO.N,unconnected-(A1-D11-Pad14)*%
X88260000Y-136120000D03*
%TO.P,A1,15,D12*%
%TO.N,unconnected-(A1-D12-Pad15)*%
X88260000Y-138660000D03*
%TO.P,A1,16,D13*%
%TO.N,unconnected-(A1-D13-Pad16)*%
X103500000Y-138660000D03*
%TO.P,A1,17,3V3*%
%TO.N,unconnected-(A1-3V3-Pad17)*%
X103500000Y-136120000D03*
%TO.P,A1,18,AREF*%
%TO.N,unconnected-(A1-AREF-Pad18)*%
X103500000Y-133580000D03*
%TO.P,A1,19,A0*%
%TO.N,Net-(A1-A0)*%
X103500000Y-131040000D03*
%TO.P,A1,20,A1*%
%TO.N,Net-(A1-A1)*%
X103500000Y-128500000D03*
%TO.P,A1,21,A2*%
%TO.N,Net-(A1-A2)*%
X103500000Y-125960000D03*
%TO.P,A1,22,A3*%
%TO.N,+5V*%
X103500000Y-123420000D03*
%TO.P,A1,23,A4*%
%TO.N,unconnected-(A1-A4-Pad23)*%
X103500000Y-120880000D03*
%TO.P,A1,24,A5*%
%TO.N,unconnected-(A1-A5-Pad24)*%
X103500000Y-118340000D03*
%TO.P,A1,25,A6*%
%TO.N,unconnected-(A1-A6-Pad25)*%
X103500000Y-115800000D03*
%TO.P,A1,26,A7*%
%TO.N,unconnected-(A1-A7-Pad26)*%
X103500000Y-113260000D03*
%TO.P,A1,27,+5V*%
%TO.N,+5V*%
X103500000Y-110720000D03*
%TO.P,A1,28,~{RESET}*%
%TO.N,unconnected-(A1-~{RESET}-Pad28)*%
X103500000Y-108180000D03*
%TO.P,A1,29,GND*%
%TO.N,Net-(A1-GND-Pad29)*%
X103500000Y-105640000D03*
%TO.P,A1,30,VIN*%
%TO.N,unconnected-(A1-VIN-Pad30)*%
X103500000Y-103100000D03*
%TD*%
D12*
%TO.P,M2,1,PWM*%
%TO.N,Net-(A1-D10)*%
X140625000Y-92475000D03*
D13*
%TO.P,M2,2,+*%
%TO.N,Net-(BT2-+)*%
X140625000Y-95015000D03*
%TO.P,M2,3,-*%
%TO.N,Net-(BT2--)*%
X140625000Y-97555000D03*
%TD*%
D10*
%TO.P,R3,1*%
%TO.N,+5V*%
X90500000Y-59800000D03*
%TO.P,R3,2*%
%TO.N,Net-(A1-A0)*%
X90500000Y-52200000D03*
%TD*%
%TO.P,R5,1*%
%TO.N,+5V*%
X120500000Y-60800000D03*
%TO.P,R5,2*%
%TO.N,Net-(A1-A2)*%
X120500000Y-53200000D03*
%TD*%
D14*
%TO.P,BT2,1,+*%
%TO.N,Net-(BT2-+)*%
X182500000Y-133500000D03*
D15*
%TO.P,BT2,2,-*%
%TO.N,Net-(BT2--)*%
X182500000Y-120800000D03*
%TD*%
D17*
%TO.N,Net-(A1-A2)*%
X104731624Y-123836063D03*
%TD*%
D18*
%TO.N,Net-(A1-A1)*%
X102400000Y-127400000D02*
X103500000Y-128500000D01*
X102400000Y-112804365D02*
X102400000Y-127400000D01*
X103775635Y-112000000D02*
X103204365Y-112000000D01*
X103204365Y-112000000D02*
X102400000Y-112804365D01*
X105500000Y-110275635D02*
X103775635Y-112000000D01*
X105500000Y-91310000D02*
X105500000Y-110275635D01*
%TO.N,Net-(A1-A2)*%
X120000000Y-108567687D02*
X104731624Y-123836063D01*
X120000000Y-91810000D02*
X120000000Y-108567687D01*
%TO.N,Net-(A1-GND-Pad29)*%
X88260000Y-110720000D02*
X95780000Y-110720000D01*
X95780000Y-110720000D02*
X100860000Y-105640000D01*
X100860000Y-105640000D02*
X103500000Y-105640000D01*
%TO.N,Net-(R1-Pad2)*%
X89190000Y-82880000D02*
X104690000Y-82880000D01*
X104690000Y-82880000D02*
X105500000Y-83690000D01*
%TO.N,Net-(R6-Pad2)*%
X120000000Y-84190000D02*
X131500000Y-84190000D01*
X131500000Y-84190000D02*
X132000000Y-84690000D01*
%TD*%
M02*
